<svg width="93" height="25" viewBox="0 0 93 25" fill="none" xmlns="http://www.w3.org/2000/svg">
<path d="M16.6063 0V19.5122H13.911V2.09604H2.69526V19.5122H0V0H16.6063Z" fill="white"/>
<path d="M21.6952 25V4.87805H24.1731V7.20274H24.4774C24.6658 6.94868 24.9266 6.62475 25.2599 6.23094C25.6004 5.83079 26.0859 5.4751 26.7162 5.16387C27.3538 4.84629 28.216 4.6875 29.3028 4.6875C30.7084 4.6875 31.9473 4.99555 33.0196 5.61166C34.0919 6.22777 34.9288 7.10112 35.5301 8.23171C36.1315 9.3623 36.4322 10.6961 36.4322 12.2332C36.4322 13.783 36.1315 15.1264 35.5301 16.2633C34.9288 17.3939 34.0956 18.2705 33.0305 18.8929C31.9654 19.509 30.7374 19.8171 29.3463 19.8171C28.2739 19.8171 27.4154 19.6615 26.7705 19.3502C26.1257 19.0326 25.6294 18.6738 25.2816 18.2736C24.9339 17.8671 24.6658 17.5305 24.4774 17.2637H24.26V25H21.6952ZM24.2166 12.1951C24.2166 13.3003 24.4013 14.2753 24.7708 15.12C25.1403 15.9585 25.6801 16.6159 26.3902 17.0922C27.1002 17.5622 27.9696 17.7973 28.9985 17.7973C30.0708 17.7973 30.9656 17.5495 31.6829 17.0541C32.4074 16.5523 32.9508 15.8791 33.3131 15.0343C33.6826 14.1832 33.8673 13.2368 33.8673 12.1951C33.8673 11.1662 33.6862 10.2388 33.3239 9.41311C32.9689 8.58105 32.4291 7.92365 31.7046 7.44093C30.9873 6.95185 30.0853 6.70732 28.9985 6.70732C27.9552 6.70732 27.0785 6.93915 26.3684 7.40282C25.6584 7.86014 25.1222 8.50165 24.76 9.32736C24.3977 10.1467 24.2166 11.1026 24.2166 12.1951Z" fill="white"/>
<path d="M65.3872 24.5046V0H67.952V24.5046H65.3872ZM65.3872 19.8171C64.2569 19.8171 63.2281 19.6392 62.3007 19.2835C61.3733 18.9215 60.5763 18.4102 59.9097 17.7496C59.2432 17.0827 58.7287 16.2856 58.3665 15.3582C58.0042 14.4309 57.8231 13.4019 57.8231 12.2713C57.8231 11.128 58.0042 10.0927 58.3665 9.1654C58.7287 8.23171 59.2432 7.4314 59.9097 6.76448C60.5763 6.09756 61.3733 5.58625 62.3007 5.23056C63.2281 4.86852 64.2569 4.6875 65.3872 4.6875H66.1697V19.8171H65.3872ZM65.3872 17.7973H65.8219V6.70732H65.3872C64.5322 6.70732 63.7896 6.85976 63.1593 7.16463C62.5289 7.46316 62.0072 7.87284 61.5943 8.39367C61.1885 8.90816 60.8842 9.49886 60.6814 10.1658C60.4857 10.8327 60.3879 11.5346 60.3879 12.2713C60.3879 13.2495 60.5654 14.1578 60.9204 14.9962C61.2755 15.8346 61.8225 16.5111 62.5615 17.0255C63.3005 17.54 64.2424 17.7973 65.3872 17.7973ZM67.952 19.8171H67.1695V4.6875H67.952C69.0823 4.6875 70.1111 4.86852 71.0385 5.23056C71.9659 5.58625 72.7629 6.09756 73.4295 6.76448C74.0961 7.4314 74.6105 8.23171 74.9727 9.1654C75.335 10.0927 75.5161 11.128 75.5161 12.2713C75.5161 13.4019 75.335 14.4309 74.9727 15.3582C74.6105 16.2856 74.0961 17.0827 73.4295 17.7496C72.7629 18.4102 71.9659 18.9215 71.0385 19.2835C70.1111 19.6392 69.0823 19.8171 67.952 19.8171ZM67.952 17.7973C68.8142 17.7973 69.5569 17.6512 70.18 17.359C70.8103 17.0605 71.3283 16.654 71.7341 16.1395C72.1471 15.6186 72.4514 15.0279 72.647 14.3674C72.8499 13.7005 72.9513 13.0018 72.9513 12.2713C72.9513 11.2932 72.7738 10.3817 72.4188 9.53697C72.0637 8.6922 71.5167 8.0094 70.7777 7.48857C70.0387 6.96773 69.0968 6.70732 67.952 6.70732H67.5173V17.7973H67.952Z" fill="white"/>
<path d="M82.0016 16.1966L90.0439 4.87805H93V19.5122H90.4352V8.1936L82.4363 19.5122H79.4368V4.87805H82.0016V16.1966Z" fill="white"/>
<path d="M41.8538 16.074C42.7535 17.2808 43.997 18.1673 45.4102 18.6093C46.8234 19.0513 48.3353 19.0266 49.7341 18.5386C51.133 18.0507 52.3486 17.1239 53.2107 15.8883C54.0727 14.6527 54.538 13.1701 54.5414 11.6483C54.5447 10.1265 54.0858 8.64176 53.2292 7.40216C52.3725 6.16256 51.1609 5.23023 49.7642 4.73581C48.3675 4.24139 46.8557 4.20968 45.4406 4.64511C44.0256 5.08054 42.7782 5.96129 41.8732 7.16393L43.0374 8.0941C43.754 7.14183 44.7417 6.44444 45.8621 6.09967C46.9826 5.75489 48.1797 5.78 49.2856 6.17149C50.3915 6.56297 51.3509 7.30121 52.0292 8.28274C52.7075 9.26427 53.0708 10.4399 53.0682 11.6449C53.0656 12.8499 52.6972 14.0238 52.0146 15.0022C51.332 15.9806 50.3694 16.7144 49.2618 17.1007C48.1542 17.4871 46.957 17.5067 45.838 17.1567C44.7191 16.8067 43.7344 16.1048 43.0221 15.1492L41.8538 16.074Z" fill="#C82E2E"/>
<rect width="4.18028" height="4.11921" transform="matrix(0.772555 0.634948 -0.612078 0.790797 40.9343 8.33334)" fill="white"/>
</svg>
